<svg width="32" height="28" viewBox="0 0 32 28" fill="none" xmlns="http://www.w3.org/2000/svg">
<path d="M7.19961 13.9355C12.866 13.9355 16.7993 8.75142 16.7993 4.5105C16.7993 1.34662 13.9325 0 11.1329 0C4.93144 0 1.53326 5.59071 1.53326 9.42504C1.53326 12.5889 4.46662 13.9355 7.19961 13.9355ZM22.4003 13.9355C28.0667 13.9355 32 8.75142 32 4.5105C32 1.34662 29.0666 0 26.2664 0C20.0668 0 16.6674 5.58754 16.6674 9.42504C16.6674 12.5889 19.6673 13.9355 22.4003 13.9355ZM24.9989 23.6968C21.2734 26.8139 16.4883 28.3359 11.6662 27.9377C5.33281 27.5336 0.799607 22.6191 0 17.4356H0.266326C1.73301 20.6705 5.26623 23.6968 9.59969 24.1674C13.9966 24.7059 19.266 22.687 22.1321 19.9265L18.9324 17.4356H28.5987L26.463 27.8032L25.0629 23.764L24.9989 23.6968Z" fill="#EA1D2C"/>
</svg>
